#N canvas 827 239 734 565 12;
#X obj 391 601 dac~;
#X obj 411 345 r cny @hv_param;
#X obj 365 449 sig~;
#X obj 361 414 * 220;
#X obj 378 524 hv.osc~ sine;
#X obj 477 414 s led1 @hv_param;
#X text 526 523 Test patch for CNY70 sensor;
#X text 526 562 github.com/ledlaux/pikoPD;
#X connect 1 0 5 0;
#X connect 1 0 3 0;
#X connect 2 0 4 0;
#X connect 3 0 2 0;
#X connect 4 0 0 1;
#X connect 4 0 0 0;
