#N canvas 827 239 734 565 12;
#X obj 257 375 print distance;
#X obj 263 638 hv.osc~ sine;
#X obj 287 549 sig~;
#X obj 296 698 dac~;
#X obj 215 319 r distance @hv_param;
#X obj 247 465 * 20;
#X connect 1 0 3 0;
#X connect 1 0 3 1;
#X connect 2 0 1 0;
#X connect 4 0 0 0;
#X connect 4 0 5 0;
#X connect 5 0 2 0;
