#N canvas 827 239 734 565 12;
#X obj 189 135 r enc @hv_param;
#X obj 189 182 t f b;
#X obj 232 212 f 0;
#X obj 189 242 +;
#X obj 189 302 t f f;
#X text 156 520 https://github.com/ledlaux/pikoPD;
#X obj 189 403 print enc_value;
#X text 260 271 Set encoder steps here;
#X text 203 493 Encoder patch;
#X obj 189 272 mod 8;
#X obj 189 343 hradio 20 1 0 8 empty empty empty 0 -8 0 10 #191919 #ffffff #ffffff 0;
#X connect 0 0 1 0;
#X connect 1 0 3 0;
#X connect 1 1 2 0;
#X connect 2 0 3 1;
#X connect 3 0 9 0;
#X connect 4 0 2 1;
#X connect 4 0 10 0;
#X connect 9 0 4 0;
#X connect 10 0 6 0;
