#N canvas 827 239 734 565 12;
#X obj 69 357 dac~;
#X obj 63 135 notein;
#X obj 63 174 mtof;
#X obj 69 301 *~ 0.5;
#X obj 50 54 / 127;
#X obj 50 19 ctlin 1 1;
#X obj 194 135 r enc @hv_param;
#X obj 189 182 t f b;
#X obj 232 212 f 0;
#X obj 189 242 +;
#X obj 189 272 mod 5;
#X obj 189 302 t f f;
#X text 40 477 https://github.com/ledlaux/pikoPD;
#X text 49 448 This is default patch for testing;
#X obj 189 344 print enc_value;
#X obj 425 73 print gpio26_value;
#X obj 63 209 sig~;
#X obj 292 27 r btn2 @hv_param;
#X obj 292 73 s led2 @hv_param;
#X obj 425 27 r knob @hv_param;
#X obj 152 27 r btn1 @hv_param;
#X obj 152 73 s led1 @hv_param;
#X obj 63 251 hv.osc~ saw;
#X obj 50 84 print cc1;
#X text 255 271 Set encoder steps here;
#X obj 567 27 r joy_x @hv_param;
#X obj 702 27 r joy_y @hv_param;
#X obj 567 73 print joy_x;
#X obj 702 73 print joy_y;
#X obj 534 135 s gate @hv_param;
#X obj 689 135 s trigger @hv_param;
#X obj 369 135 r gate_in @ hv_param;
#X connect 1 0 2 0;
#X connect 2 0 16 0;
#X connect 3 0 0 0;
#X connect 3 0 0 1;
#X connect 4 0 23 0;
#X connect 4 0 21 0;
#X connect 5 0 4 0;
#X connect 6 0 7 0;
#X connect 7 0 9 0;
#X connect 7 1 8 0;
#X connect 8 0 9 1;
#X connect 9 0 10 0;
#X connect 10 0 11 0;
#X connect 11 0 14 0;
#X connect 11 0 8 1;
#X connect 16 0 22 0;
#X connect 19 0 15 0;
#X connect 20 0 21 0;
#X connect 22 0 3 0;
