#N canvas 827 239 734 565 12;
#X obj 58 218 osc~;
#X obj 58 306 dac~;
#X obj 58 144 notein;
#X obj 58 183 mtof;
#X obj 58 253 *~ 0.5;
#X obj 49 64 / 127;
#X obj 49 29 ctlin 1 1;
#X obj 49 94 print value;
#X obj 171 8 r btn1 @hv_param 0 1;
#X obj 330 8 r btn2 @hv_param 0 1;
#X obj 171 33 s led1 @hv_param 0 1;
#X obj 330 33 s led2 @hv_param 0 1;
#X obj 488 33 print adc_gpio26;
#X obj 488 8 r knob @hv_param 0 1;
#X connect 0 0 4 0;
#X connect 2 0 3 0;
#X connect 3 0 0 0;
#X connect 4 0 1 0;
#X connect 4 0 1 1;
#X connect 5 0 7 0;
#X connect 5 0 10 0;
#X connect 6 0 5 0;
#X connect 8 0 10 0;
#X connect 9 0 11 0;
#X connect 13 0 12 0;
