#N canvas 386 206 1077 604 12;
#X obj 641 506 throw~ left;
#X obj 853 506 throw~ delay;
#X obj 623 164 mtof;
#X obj 1106 78 catch~ delay;
#X obj 1107 131 lop~ 2000;
#X obj 1107 186 *~ 0.9;
#X obj 1107 209 delwrite~ delBuff 800;
#X obj 1033 283 delread~ delBuff 800;
#X obj 1064 345 throw~ left;
#X obj 1233 276 delread~ delBuff 633;
#X obj 1317 350 throw~ delay;
#X obj 1095 428 catch~ left;
#X obj 1169 474 dac~;
#X obj 1107 154 hip~ 600;
#X obj 727 -6 notein;
#X obj 1211 350 throw~ right;
#X obj 1211 428 catch~ right;
#X obj 747 506 throw~ right;
#X obj 703 154 / 127;
#X obj 790 193 * 0.5;
#X obj 759 244 pack;
#X msg 772 283 \$1 5 \, \$2 200 5;
#X obj 678 244 sig~;
#X obj 727 379 *~;
#X obj 654 299 hv.osc~ saw;
#X obj 772 332 hv.vline~;
#X text 150 342 Copyright (c) 2015 \, enzienaudio (ISC license);
#X text 94 231 This is simple monophonic synthesizer with an envelope and delay;
#X text 83 261 This patch is made using examples from github.com/Wasted-Audio/hvcc-examples;
#X text 160 163 Compiles and runs on RP2040 and RP2350;
#X obj 1007 216 ctlin 1;
#X obj 1329 213 ctlin 2;
#X obj 665 78 stripnote;
#X msg 892 283 0 300;
#X connect 2 0 22 0;
#X connect 3 0 4 0;
#X connect 4 0 13 0;
#X connect 5 0 6 0;
#X connect 7 0 8 0;
#X connect 9 0 10 0;
#X connect 9 0 15 0;
#X connect 11 0 12 0;
#X connect 13 0 5 0;
#X connect 14 0 32 0;
#X connect 14 1 33 0;
#X connect 14 1 32 1;
#X connect 16 0 12 1;
#X connect 18 0 20 0;
#X connect 18 0 19 0;
#X connect 19 0 20 1;
#X connect 20 0 21 0;
#X connect 21 0 25 0;
#X connect 22 0 24 0;
#X connect 23 0 0 0;
#X connect 23 0 17 0;
#X connect 23 0 1 0;
#X connect 24 0 23 0;
#X connect 25 0 23 1;
#X connect 30 0 7 0;
#X connect 31 0 9 0;
#X connect 32 0 2 0;
#X connect 32 1 18 0;
#X connect 33 0 25 0;
