#N canvas 827 239 734 565 12;
#X obj 510 759 netsend -u -b;
#X obj 645 332 vsl 17 128 0 127 0 0 empty empty empty 0 -9 0 10 #191919 #ffffff #ffffff 0 1;
#X obj 579 560 oscformat /v;
#X msg 713 475 \$1;
#X msg 579 673 connect pikopd.local 8000;
#X msg 651 767 disconnect pikopd.local 8000;
#X connect 1 0 3 0;
#X connect 2 0 0 0;
#X connect 3 0 2 0;
#X connect 4 0 0 0;
#X connect 5 0 0 0;
