#N canvas 827 239 734 565 12;
#X obj 1029 496 notein;
#X obj 1030 715 pack f f f;
#X obj 965 983 mtof;
#X obj 1114 1507 dac~;
#X obj 758 902 mtof;
#X obj 836 1267 *~;
#X obj 1180 991 mtof;
#X obj 1108 833 unpack f f;
#X obj 1197 1219 *~;
#X obj 885 833 unpack f f;
#X obj 995 833 unpack f f;
#X obj 1060 1242 *~;
#X obj 1170 1431 *~ 0.25;
#X obj 965 1386 +~;
#X obj 1310 1354 +~;
#X obj 1409 1044 mtof;
#X obj 1210 833 unpack f f;
#X obj 1409 1299 *~;
#X obj 776 956 sig~;
#X obj 965 1036 sig~;
#X obj 1180 1044 sig~;
#X obj 1393 1105 sig~;
#X obj 1030 759 route 0 1 2;
#X obj 836 947 / 127;
#X obj 852 1060 pack f 5;
#X obj 852 1141 line~;
#X obj 852 1010 * 0.7;
#X obj 1047 925 / 127;
#X obj 1063 1038 pack f 5;
#X obj 1063 1119 line~;
#X obj 1063 988 * 0.7;
#X obj 1282 1036 / 127;
#X obj 1298 1149 pack f 5;
#X obj 1298 1230 line~;
#X obj 1298 1099 * 0.7;
#X obj 1480 1067 / 127;
#X obj 1496 1180 pack f 5;
#X obj 1496 1261 line~;
#X obj 1496 1130 * 0.7;
#X obj 758 1119 osc~;
#X obj 946 1201 osc~;
#X obj 1192 1141 osc~;
#X obj 1393 1180 osc~;
#X obj 1029 587 poly 3;
#X connect 0 0 43 0;
#X connect 0 1 43 1;
#X connect 1 0 22 0;
#X connect 2 0 19 0;
#X connect 4 0 18 0;
#X connect 5 0 13 0;
#X connect 6 0 20 0;
#X connect 7 0 6 0;
#X connect 7 1 31 0;
#X connect 8 0 14 0;
#X connect 9 0 4 0;
#X connect 9 1 23 0;
#X connect 10 0 2 0;
#X connect 10 1 27 0;
#X connect 11 0 13 0;
#X connect 12 0 3 0;
#X connect 12 0 3 1;
#X connect 13 0 12 0;
#X connect 14 0 12 0;
#X connect 15 0 21 0;
#X connect 16 0 15 0;
#X connect 16 1 35 0;
#X connect 17 0 14 1;
#X connect 18 0 39 0;
#X connect 19 0 40 0;
#X connect 20 0 41 0;
#X connect 21 0 42 0;
#X connect 22 0 9 0;
#X connect 22 1 10 0;
#X connect 22 2 7 0;
#X connect 22 3 16 0;
#X connect 23 0 26 0;
#X connect 24 0 25 0;
#X connect 25 0 5 1;
#X connect 26 0 24 0;
#X connect 27 0 30 0;
#X connect 28 0 29 0;
#X connect 29 0 11 1;
#X connect 30 0 28 0;
#X connect 31 0 34 0;
#X connect 32 0 33 0;
#X connect 33 0 8 1;
#X connect 34 0 32 0;
#X connect 35 0 38 0;
#X connect 36 0 37 0;
#X connect 37 0 17 1;
#X connect 38 0 36 0;
#X connect 39 0 5 0;
#X connect 40 0 11 0;
#X connect 41 0 8 0;
#X connect 42 0 17 0;
#X connect 43 0 1 0;
#X connect 43 1 1 1;
#X connect 43 2 1 2;
