#N canvas 827 239 734 565 12;
#X text 40 477 https://github.com/ledlaux/pikoPD;
#X obj 232 113 r web1 @hv_param;
#X obj 232 302 dac~;
#X obj 232 154 mtof;
#X obj 232 201 sig~;
#X obj 232 250 hv.osc~ saw;
#X obj 422 259 s osc @hv_param;
#X obj 422 113 loadbang;
#X obj 422 186 metro 200;
#X obj 537 186 metro 300;
#X obj 547 259 s osc1 @hv_param;
#X obj 314 346 s osc2 @hv_param;
#X connect 1 0 3 0;
#X connect 1 0 11 0;
#X connect 3 0 4 0;
#X connect 4 0 5 0;
#X connect 5 0 2 0;
#X connect 5 0 2 1;
#X connect 7 0 8 0;
#X connect 7 0 9 0;
#X connect 8 0 6 0;
#X connect 9 0 10 0;
