#N canvas 827 239 734 565 12;
#X obj 225 354 osc~;
#X obj 225 489 dac~;
#X obj 228 160 notein;
#X obj 236 268 mtof;
#X obj 225 412 *~ 0.5;
#X obj 126 79 / 127;
#X obj 126 44 ctlin 1 1;
#X obj 217 79 print value;
#X obj 217 44 s LED @hv_param 0 1;
#X connect 0 0 4 0;
#X connect 2 0 3 0;
#X connect 3 0 0 0;
#X connect 4 0 1 0;
#X connect 4 0 1 1;
#X connect 5 0 7 0;
#X connect 5 0 8 0;
#X connect 6 0 5 0;
