#N canvas 827 239 734 565 12;
#X obj 533 682 netsend -u -b;
#X obj 536 299 vsl 17 128 1.27 127 1 0 empty empty empty 0 -9 0 10 #191919 #ffffff #ffffff 0 1;
#X msg 533 476 \$1;
#X msg 630 570 connect pikopd.local 8000;
#X msg 630 617 disconnect pikopd.local 8000;
#X obj 946 598 print;
#X obj 946 472 netreceive -u -b;
#X msg 946 429 listen 9000;
#X obj 946 518 oscparse;
#X obj 946 559 list trim;
#X obj 533 529 oscformat /osc2;
#X text 641 528 [r osc2 @hv_param] object;
#X connect 1 0 2 0;
#X connect 2 0 10 0;
#X connect 3 0 0 0;
#X connect 4 0 0 0;
#X connect 6 0 8 0;
#X connect 7 0 6 0;
#X connect 8 0 9 0;
#X connect 9 0 5 0;
#X connect 10 0 0 0;
